<svg xmlns="http://www.w3.org/2000/svg" viewBox="0 0 16 16" id="Spotify-Line--Streamline-Mingcute" height="16" width="16">
  <desc>
    Spotify Line Streamline Icon: https://streamlinehq.com
  </desc>
  <g fill="none" fill-rule="nonzero">
    <path d="M16 0v16H0V0h16ZM8.395333333333333 15.505333333333333l-0.007333333333333332 0.0013333333333333333 -0.047333333333333324 0.023333333333333334 -0.013333333333333332 0.0026666666666666666 -0.009333333333333332 -0.0026666666666666666 -0.047333333333333324 -0.023333333333333334c-0.006666666666666666 -0.0026666666666666666 -0.012666666666666666 -0.0006666666666666666 -0.016 0.003333333333333333l-0.0026666666666666666 0.006666666666666666 -0.011333333333333334 0.2853333333333333 0.003333333333333333 0.013333333333333332 0.006666666666666666 0.008666666666666666 0.06933333333333333 0.049333333333333326 0.009999999999999998 0.0026666666666666666 0.008 -0.0026666666666666666 0.06933333333333333 -0.049333333333333326 0.008 -0.010666666666666666 0.0026666666666666666 -0.011333333333333334 -0.011333333333333334 -0.2846666666666666c-0.0013333333333333333 -0.006666666666666666 -0.005999999999999999 -0.011333333333333334 -0.011333333333333334 -0.011999999999999999Zm0.17666666666666667 -0.07533333333333334 -0.008666666666666666 0.0013333333333333333 -0.12333333333333332 0.062 -0.006666666666666666 0.006666666666666666 -0.002 0.007333333333333332 0.011999999999999999 0.2866666666666666 0.003333333333333333 0.008 0.005333333333333333 0.004666666666666666 0.134 0.062c0.008 0.0026666666666666666 0.015333333333333332 0 0.019333333333333334 -0.005333333333333333l0.0026666666666666666 -0.009333333333333332 -0.02266666666666667 -0.4093333333333333c-0.002 -0.008 -0.006666666666666666 -0.013333333333333332 -0.013333333333333332 -0.014666666666666665Zm-0.4766666666666666 0.0013333333333333333a0.015333333333333332 0.015333333333333332 0 0 0 -0.018 0.004l-0.004 0.009333333333333332 -0.02266666666666667 0.4093333333333333c0 0.008 0.004666666666666666 0.013333333333333332 0.011333333333333334 0.016l0.009999999999999998 -0.0013333333333333333 0.134 -0.062 0.006666666666666666 -0.005333333333333333 0.0026666666666666666 -0.007333333333333332 0.011333333333333334 -0.2866666666666666 -0.002 -0.008 -0.006666666666666666 -0.006666666666666666 -0.12266666666666666 -0.06133333333333333Z" stroke-width="0.6667"></path>
    <path fill="#000000" d="M8 1.3333333333333333c3.6819999999999995 0 6.666666666666666 2.9846666666666666 6.666666666666666 6.666666666666666s-2.9846666666666666 6.666666666666666 -6.666666666666666 6.666666666666666S1.3333333333333333 11.681999999999999 1.3333333333333333 8 4.318 1.3333333333333333 8 1.3333333333333333Zm0 1.3333333333333333a5.333333333333333 5.333333333333333 0 1 0 0 10.666666666666666 5.333333333333333 5.333333333333333 0 0 0 0 -10.666666666666666ZM5.151999999999999 9.407333333333334c0.9453333333333332 -0.21733333333333332 1.9566666666666666 -0.21466666666666667 2.8313333333333333 -0.07933333333333333 0.8506666666666667 0.132 1.6759999999999997 0.4066666666666666 2.1846666666666668 0.8226666666666667a0.6666666666666666 0.6666666666666666 0 0 1 -0.7759999999999999 1.0813333333333333l-0.06799999999999999 -0.048666666666666664c-0.2373333333333333 -0.19466666666666665 -0.7853333333333332 -0.42 -1.5453333333333332 -0.5373333333333333 -0.7366666666666666 -0.11466666666666665 -1.5746666666666667 -0.112 -2.328 0.06066666666666666a0.6666666666666666 0.6666666666666666 0 1 1 -0.29866666666666664 -1.2993333333333332Zm-0.3466666666666667 -1.8206666666666664c2.1726666666666663 -0.606 4.699999999999999 -0.2633333333333333 6.241999999999999 0.6833333333333332a0.6666666666666666 0.6666666666666666 0 0 1 -0.698 1.1366666666666667c-1.1886666666666665 -0.73 -3.3266666666666667 -1.0539999999999998 -5.1866666666666665 -0.536a0.6666666666666666 0.6666666666666666 0 1 1 -0.35733333333333334 -1.2839999999999998ZM4.486666666666666 5.675999999999999c2.5066666666666664 -0.7 4.997333333333334 -0.33666666666666667 7.110666666666667 0.576a0.6666666666666666 0.6666666666666666 0 0 1 -0.5286666666666666 1.224c-1.8866666666666667 -0.8153333333333334 -4.062666666666667 -1.1186666666666665 -6.223333333333334 -0.516a0.6666666666666666 0.6666666666666666 0 1 1 -0.3586666666666667 -1.2839999999999998Z" stroke-width="0.6667"></path>
  </g>
</svg>